<mxfile host="65bd71144e">
    <diagram id="efqCLAKp1vOjkWk3Znzf" name="ページ1">
        <mxGraphModel dx="2107" dy="844" grid="1" gridSize="10" guides="1" tooltips="1" connect="1" arrows="1" fold="1" page="1" pageScale="1" pageWidth="827" pageHeight="1169" math="0" shadow="0">
            <root>
                <mxCell id="0"/>
                <mxCell id="1" parent="0"/>
                <mxCell id="3" value="" style="shape=image;verticalLabelPosition=bottom;labelBackgroundColor=default;verticalAlign=top;aspect=fixed;imageAspect=0;image=https://upload.wikimedia.org/wikipedia/commons/thumb/4/4b/Cloudflare_Logo.svg/1200px-Cloudflare_Logo.svg.png;" vertex="1" parent="1">
                    <mxGeometry x="-104.83" y="538" width="139.66" height="47" as="geometry"/>
                </mxCell>
                <mxCell id="4" value="" style="shape=image;verticalLabelPosition=bottom;labelBackgroundColor=default;verticalAlign=top;aspect=fixed;imageAspect=0;image=https://upload.wikimedia.org/wikipedia/commons/thumb/6/66/Nuxt_logo_%282021%29.svg/2560px-Nuxt_logo_%282021%29.svg.png;" vertex="1" parent="1">
                    <mxGeometry x="-820" y="390" width="316.08" height="93" as="geometry"/>
                </mxCell>
                <mxCell id="5" value="" style="shape=image;verticalLabelPosition=bottom;labelBackgroundColor=default;verticalAlign=top;aspect=fixed;imageAspect=0;image=https://www.nginx.co.jp/wp-content/uploads/2018/08/NGINX-logo-rgb-large.png;" vertex="1" parent="1">
                    <mxGeometry y="950" width="520" height="175" as="geometry"/>
                </mxCell>
                <mxCell id="7" value="" style="rounded=0;whiteSpace=wrap;html=1;" vertex="1" parent="1">
                    <mxGeometry x="140" y="290" width="760" height="530" as="geometry"/>
                </mxCell>
                <mxCell id="8" value="" style="shape=image;verticalLabelPosition=bottom;labelBackgroundColor=default;verticalAlign=top;aspect=fixed;imageAspect=0;image=https://xn--w8j8bac3czf5bl7e.com/wp-content/uploads/blog/cloud-2.png;clipPath=inset(24.45% 10.33% 24.09% 11%);" vertex="1" parent="1">
                    <mxGeometry x="150" y="250" width="117.16" height="70" as="geometry"/>
                </mxCell>
                <mxCell id="9" value="仮想サーバー：Oracle Cloud Infrastructure&amp;nbsp;Ampere A1 Computeインスタンス" style="text;html=1;strokeColor=none;fillColor=none;align=center;verticalAlign=middle;whiteSpace=wrap;rounded=0;fontSize=14;" vertex="1" parent="1">
                    <mxGeometry x="267.16" y="260" width="512.84" height="30" as="geometry"/>
                </mxCell>
                <mxCell id="11" value="Cloudflare プロキシ" style="text;html=1;strokeColor=none;fillColor=none;align=center;verticalAlign=middle;whiteSpace=wrap;rounded=0;" vertex="1" parent="1">
                    <mxGeometry x="-120" y="660" width="60" height="30" as="geometry"/>
                </mxCell>
                <mxCell id="12" value="" style="rounded=0;whiteSpace=wrap;html=1;" vertex="1" parent="1">
                    <mxGeometry x="200" y="340" width="51.42" height="430" as="geometry"/>
                </mxCell>
                <mxCell id="13" value="" style="rounded=0;whiteSpace=wrap;html=1;" vertex="1" parent="1">
                    <mxGeometry x="370" y="340" width="510" height="330" as="geometry"/>
                </mxCell>
                <mxCell id="6" value="" style="shape=image;verticalLabelPosition=bottom;labelBackgroundColor=default;verticalAlign=top;aspect=fixed;imageAspect=0;image=https://www.docker.com/wp-content/uploads/2022/03/vertical-logo-monochromatic.png;" vertex="1" parent="1">
                    <mxGeometry x="384" y="316.5" width="58.43" height="50" as="geometry"/>
                </mxCell>
                <mxCell id="15" value="ロードバランサ(負荷分散)" style="text;html=1;strokeColor=none;fillColor=none;align=center;verticalAlign=middle;whiteSpace=wrap;rounded=0;fontSize=15;horizontal=0;rotation=90;" vertex="1" parent="1">
                    <mxGeometry x="71.07" y="529.65" width="309.29" height="30" as="geometry"/>
                </mxCell>
            </root>
        </mxGraphModel>
    </diagram>
</mxfile>